<svg width="106" height="106" viewBox="0 0 106 106" fill="none" xmlns="http://www.w3.org/2000/svg">
<path fill-rule="evenodd" clip-rule="evenodd" d="M60.6836 21.0582C60.5687 21.0798 60.0048 21.1699 59.4305 21.2587C55.1559 21.9194 50.6507 24.6999 48.1723 28.2073C46.0599 31.1965 45.0922 34.2423 45.0909 37.9045L45.0904 39.5979L44.081 39.5179C42.9683 39.4296 41.0224 39.6181 39.7298 39.9392C35.7424 40.9299 32.3157 43.5959 30.4898 47.1277C29.4298 49.1778 29.0294 50.8245 29.0223 53.1623C29.0166 55.0509 29.2823 56.494 29.9312 58.1012L30.3436 59.1222L31.2757 58.5815C33.4193 57.3377 35.4978 56.7677 38.2684 56.663C39.8537 56.6032 40.3765 56.6374 41.6087 56.8805C43.3555 57.2254 45.2174 57.9338 46.5591 58.7639L47.5405 59.3711L47.7075 58.693C48.1267 56.9918 49.3967 55.2717 50.98 54.2605C52.3225 53.4031 53.4607 53.0337 55.0612 52.9366L56.3304 52.8594L56.408 51.3822C56.8269 43.3962 65.3558 37.7992 73.4108 40.2244C76.8585 41.2625 79.7338 43.5791 81.3414 46.6145C81.5448 46.9983 81.7262 47.3125 81.7445 47.3125C81.7629 47.3125 81.9968 47.2513 82.2643 47.1767C83.2037 46.9144 85.0956 46.8037 86.4259 46.933C89.9466 47.2753 92.9692 48.9377 95.1467 51.7296C95.796 52.5622 95.7581 52.5675 96.3628 51.5561C97.8611 49.05 98.4776 45.4928 97.9306 42.5105C96.7998 36.3447 91.4572 31.6289 85.0135 31.1086C83.4061 30.9787 81.4919 31.1202 80.0302 31.4766C79.459 31.6158 78.9916 31.7211 78.9916 31.7104C78.9916 31.6996 78.6327 31.0028 78.194 30.1619C77.7553 29.321 77.0661 28.2146 76.6625 27.7031C73.9332 24.2449 69.8316 21.8779 65.3715 21.1872C64.2772 21.0177 61.333 20.9367 60.6836 21.0582ZM77.214 53.4459C74.6892 53.8031 73.1483 56.2898 73.9899 58.6486C74.2797 59.4604 75.1668 60.4032 76.0507 60.8383C76.6298 61.1235 76.9605 61.1908 77.8082 61.1957C79.4755 61.2057 80.782 60.4685 81.5394 59.0906C81.8571 58.5126 81.9117 58.2489 81.9134 57.2838C81.915 56.2788 81.8698 56.0753 81.5041 55.4447C80.6459 53.9653 78.9913 53.1945 77.214 53.4459ZM9.59658 55.4261C4.35324 56.1206 0.765561 59.8229 0.124849 65.2004C0.0182027 66.0959 -0.0192479 69.4337 0.00915393 75.5215C0.0505037 84.37 0.0559353 84.5253 0.338283 84.8864C1.06392 85.8144 2.02694 86.0751 3.08184 85.6295C4.30591 85.1124 4.21764 85.8811 4.30674 74.9722C4.39445 64.2421 4.37078 64.5168 5.36401 62.7119C6.74651 60.1994 9.93476 58.9131 13.0443 59.6132C15.5567 60.1788 17.2991 61.7486 18.1826 64.2428L18.5667 65.3273L18.637 74.8997C18.7048 84.1382 18.7169 84.4873 18.9827 84.907C19.2902 85.3927 20.187 85.8681 20.7957 85.8681C21.3437 85.8681 22.2691 85.4082 22.6056 84.9687C22.8765 84.6148 22.8852 84.3607 22.9278 75.498C22.9585 69.0754 22.9233 66.0382 22.8082 65.1943C22.3952 62.1689 21.0031 59.5619 18.8815 57.8407C17.8221 56.9812 15.8751 56.0404 14.4454 55.6971C13.1767 55.3926 10.8369 55.2617 9.59658 55.4261ZM36.3888 63.7323C34.0048 64.1625 32.265 65.0321 30.421 66.7151C28.0437 68.885 26.8386 71.5936 26.8386 74.7667C26.8386 76.7735 27.1411 77.9772 28.125 79.8853C28.7685 81.1335 28.9935 81.4221 30.25 82.6108C32.6374 84.8696 35.3781 85.9964 38.4938 86C43.7084 86.0062 48.3484 82.6551 49.8356 77.8087C50.1962 76.6335 50.3353 74.2679 50.1164 73.0325C49.8702 71.6432 49.3379 70.2242 48.6199 69.044C47.7674 67.6427 45.8237 65.799 44.3943 65.0356C41.9154 63.7117 39.0702 63.2485 36.3888 63.7323ZM76.9706 63.7787C76.7039 63.914 76.3445 64.2221 76.1723 64.463L75.859 64.9013V74.7003V84.4992L76.1751 84.951C77.0679 86.2272 79.0002 86.1448 79.7225 84.7997L80.0358 84.2163V74.7003V65.1842L79.7225 64.6008C79.1894 63.608 78.0045 63.2539 76.9706 63.7787ZM93.3317 63.6183C89.6146 64.19 86.5555 66.3707 84.9581 69.5878C83.8766 71.7659 83.8647 71.862 83.8646 78.5126C83.8645 84.2372 83.8717 84.3952 84.1516 84.7532C85.0991 85.9658 86.7386 86.0328 87.6136 84.8948C87.8919 84.5328 87.9046 84.3184 87.9763 78.7126L88.0507 72.9054L88.4079 72.0175C89.11 70.2725 90.2987 68.9536 91.8093 68.2439C95.5808 66.472 100.149 68.3818 101.505 72.2976C101.79 73.1223 101.812 73.4887 101.885 78.828C101.971 84.997 101.956 84.8873 102.796 85.4129C103.699 85.9781 105.166 85.6583 105.726 84.7741C105.989 84.3586 106.001 84.084 106 78.6223C105.999 73.1822 105.984 72.8501 105.694 71.7625C105.167 69.7807 104.308 68.2493 102.962 66.8874C101.623 65.5327 99.516 64.3332 97.6477 63.8619C96.8093 63.6504 94.1132 63.4983 93.3317 63.6183ZM53.0248 63.9645C52.2805 64.4483 51.9969 64.9114 52.0073 65.6259C52.015 66.1458 52.7493 67.9076 56.1496 75.5645C58.845 81.6336 60.4105 84.9989 60.6504 85.2387C61.0787 85.6668 61.9233 85.9212 62.5085 85.7984C63.0509 85.6848 63.6983 85.1504 64.0151 84.5551C64.1561 84.2901 66.0643 80.0248 68.2554 75.0765C70.8705 69.1706 72.2392 65.923 72.2392 65.6235C72.2392 65.122 71.8108 64.4281 71.2614 64.0398C70.2958 63.3572 68.8581 63.7456 68.2884 64.8429C68.1123 65.1825 66.6616 68.4969 65.0647 72.2084C63.4679 75.92 62.1176 78.9113 62.064 78.8559C62.0104 78.8006 60.6068 75.6143 58.9451 71.7754C57.2833 67.9364 55.8323 64.658 55.7203 64.4899C55.1797 63.6775 53.8618 63.4205 53.0248 63.9645ZM40.3528 67.7974C42.2077 68.2055 44.2353 69.7136 45.1402 71.3582C46.3387 73.536 46.372 75.7596 45.2389 77.9614C43.8868 80.5892 40.8353 82.2459 37.8797 81.9567C34.7138 81.6471 32.1291 79.5766 31.2329 76.6326C30.9048 75.5547 31.0056 73.3476 31.4313 72.2895C32.0591 70.7292 33.5612 69.1128 35.0662 68.3781C36.4587 67.6982 38.7557 67.446 40.3528 67.7974Z" fill="white"/>
</svg>
